REM DIRINDEX 1\2\3,1\2\4,1\2\5,1\2\6
REM DIRNAME cjc157,folder01,folder02,folder03,folder04,folder05
TITLE ""
FILE "011 011.mp3" MP3
  TRACK 01 AUDIO
    TITLE "0:"
    INDEX 01 00:00:00
  TRACK 02 AUDIO
    TITLE "3:cjc157_0362"
    INDEX 01 00:00:11
  TRACK 03 AUDIO
    TITLE "0:"
    INDEX 01 00:01:21
  TRACK 04 AUDIO
    TITLE "4:cjc157_0363"
    INDEX 01 00:01:64
  TRACK 05 AUDIO
    TITLE "0:"
    INDEX 01 00:03:12
  TRACK 06 AUDIO
    TITLE "5:cjc157_0364"
    INDEX 01 00:03:59
  TRACK 07 AUDIO
    TITLE "0:"
    INDEX 01 00:06:30
  TRACK 08 AUDIO
    TITLE "3:cjc157_0365"
    INDEX 01 00:06:73
  TRACK 09 AUDIO
    TITLE "0:"
    INDEX 01 00:08:24
  TRACK 10 AUDIO
    TITLE "4:cjc157_0366"
    INDEX 01 00:08:72
  TRACK 11 AUDIO
    TITLE "0:"
    INDEX 01 00:10:04
  TRACK 12 AUDIO
    TITLE "5:cjc157_0367"
    INDEX 01 00:10:45
  TRACK 13 AUDIO
    TITLE "0:"
    INDEX 01 00:12:60
  TRACK 14 AUDIO
    TITLE "5:cjc157_0368"
    INDEX 01 00:13:33
  TRACK 15 AUDIO
    TITLE "0:"
    INDEX 01 00:15:03
  TRACK 16 AUDIO
    TITLE "5:cjc157_0369"
    INDEX 01 00:15:48
  TRACK 17 AUDIO
    TITLE "0:"
    INDEX 01 00:16:53
  TRACK 18 AUDIO
    TITLE "3:cjc157_0370"
    INDEX 01 00:17:23
  TRACK 19 AUDIO
    TITLE "0:"
    INDEX 01 00:18:39
  TRACK 20 AUDIO
    TITLE "4:cjc157_0371"
    INDEX 01 00:19:11
  TRACK 21 AUDIO
    TITLE "0:"
    INDEX 01 00:20:12
  TRACK 22 AUDIO
    TITLE "5:cjc157_0372"
    INDEX 01 00:20:61
  TRACK 23 AUDIO
    TITLE "0:"
    INDEX 01 00:23:18
  TRACK 24 AUDIO
    TITLE "5:cjc157_0373"
    INDEX 01 00:23:69
  TRACK 25 AUDIO
    TITLE "0:"
    INDEX 01 00:25:29
  TRACK 26 AUDIO
    TITLE "3:cjc157_0374"
    INDEX 01 00:25:74
  TRACK 27 AUDIO
    TITLE "0:"
    INDEX 01 00:27:14
  TRACK 28 AUDIO
    TITLE "4:cjc157_0375"
    INDEX 01 00:27:61
  TRACK 29 AUDIO
    TITLE "0:"
    INDEX 01 00:28:74
  TRACK 30 AUDIO
    TITLE "5:cjc157_0376"
    INDEX 01 00:29:42
  TRACK 31 AUDIO
    TITLE "0:"
    INDEX 01 00:31:59
  TRACK 32 AUDIO
    TITLE "3:cjc157_0377"
    INDEX 01 00:32:31
  TRACK 33 AUDIO
    TITLE "0:"
    INDEX 01 00:33:21
  TRACK 34 AUDIO
    TITLE "4:cjc157_0378"
    INDEX 01 00:33:68
  TRACK 35 AUDIO
    TITLE "0:"
    INDEX 01 00:34:65
  TRACK 36 AUDIO
    TITLE "5:cjc157_0379"
    INDEX 01 00:35:35
  TRACK 37 AUDIO
    TITLE "0:"
    INDEX 01 00:37:50
  TRACK 38 AUDIO
    TITLE "5:cjc157_0380"
    INDEX 01 00:38:24
  TRACK 39 AUDIO
    TITLE "0:"
    INDEX 01 00:40:13
  TRACK 40 AUDIO
    TITLE "3:cjc157_0381"
    INDEX 01 00:40:58
  TRACK 41 AUDIO
    TITLE "0:"
    INDEX 01 00:41:67
  TRACK 42 AUDIO
    TITLE "4:cjc157_0382"
    INDEX 01 00:42:41
  TRACK 43 AUDIO
    TITLE "0:"
    INDEX 01 00:43:58
  TRACK 44 AUDIO
    TITLE "5:cjc157_0383"
    INDEX 01 00:44:28
  TRACK 45 AUDIO
    TITLE "0:"
    INDEX 01 00:46:19
  TRACK 46 AUDIO
    TITLE "3:cjc157_0384"
    INDEX 01 00:46:62
  TRACK 47 AUDIO
    TITLE "0:"
    INDEX 01 00:48:08
  TRACK 48 AUDIO
    TITLE "4:cjc157_0385"
    INDEX 01 00:48:57
  TRACK 49 AUDIO
    TITLE "0:"
    INDEX 01 00:49:57
  TRACK 50 AUDIO
    TITLE "5:cjc157_0386"
    INDEX 01 00:50:27
  TRACK 51 AUDIO
    TITLE "0:"
    INDEX 01 00:52:63
  TRACK 52 AUDIO
    TITLE "5:cjc157_0387"
    INDEX 01 00:53:31
  TRACK 53 AUDIO
    TITLE "0:"
    INDEX 01 00:56:72
  TRACK 54 AUDIO
    TITLE "3:cjc157_0388"
    INDEX 01 00:57:45
  TRACK 55 AUDIO
    TITLE "0:"
    INDEX 01 00:58:48
  TRACK 56 AUDIO
    TITLE "4:cjc157_0389"
    INDEX 01 00:59:24
  TRACK 57 AUDIO
    TITLE "0:"
    INDEX 01 01:00:25
  TRACK 58 AUDIO
    TITLE "5:cjc157_0390"
    INDEX 01 01:00:70
  TRACK 59 AUDIO
    TITLE "0:"
    INDEX 01 01:03:20
  TRACK 60 AUDIO
    TITLE "5:cjc157_0391"
    INDEX 01 01:03:63
  TRACK 61 AUDIO
    TITLE "0:"
    INDEX 01 01:05:73
  TRACK 62 AUDIO
    TITLE "3:cjc157_0392"
    INDEX 01 01:06:42
  TRACK 63 AUDIO
    TITLE "0:"
    INDEX 01 01:07:72
  TRACK 64 AUDIO
    TITLE "4:cjc157_0393"
    INDEX 01 01:08:44
  TRACK 65 AUDIO
    TITLE "0:"
    INDEX 01 01:09:56
  TRACK 66 AUDIO
    TITLE "5:cjc157_0394"
    INDEX 01 01:10:26
  TRACK 67 AUDIO
    TITLE "0:"
    INDEX 01 01:12:48
  TRACK 68 AUDIO
    TITLE "5:cjc157_0395"
    INDEX 01 01:13:20
  TRACK 69 AUDIO
    TITLE "0:"
    INDEX 01 01:15:29
  TRACK 70 AUDIO
    TITLE "3:cjc157_0396"
    INDEX 01 01:15:74
  TRACK 71 AUDIO
    TITLE "0:"
    INDEX 01 01:17:33
  TRACK 72 AUDIO
    TITLE "4:cjc157_0397"
    INDEX 01 01:18:06
  TRACK 73 AUDIO
    TITLE "0:"
    INDEX 01 01:19:21
  TRACK 74 AUDIO
    TITLE "5:cjc157_0398"
    INDEX 01 01:19:66
  TRACK 75 AUDIO
    TITLE "0:"
    INDEX 01 01:22:74
  TRACK 76 AUDIO
    TITLE "5:cjc157_0399"
    INDEX 01 01:23:44
  TRACK 77 AUDIO
    TITLE "0:"
    INDEX 01 01:27:22
